<svg xmlns="http://www.w3.org/2000/svg" id="_Слой_1" data-name="Слой 1" viewBox="0 0 800 50"><defs><style>.cls-1{fill:#fff}</style></defs><path d="M0 0h800v50H0z" style="fill:red"/><path d="M214.28 38c-.94 0-1.71-.28-2.32-.85s-.91-1.26-.91-2.07.31-1.54.92-2.07 1.39-.81 2.31-.81 1.71.27 2.3.82.9 1.23.9 2.07-.3 1.54-.89 2.09-1.36.83-2.31.83Zm2.88-25.61-.69 17.37h-4.5l-.65-17.37h5.84ZM235.99 38c-.94 0-1.71-.28-2.32-.85s-.91-1.26-.91-2.07.31-1.54.92-2.07 1.39-.81 2.31-.81 1.71.27 2.3.82.9 1.23.9 2.07-.3 1.54-.89 2.09-1.36.83-2.31.83Zm2.88-25.61-.69 17.37h-4.5l-.65-17.37h5.84ZM257.7 38c-.94 0-1.71-.28-2.32-.85s-.91-1.26-.91-2.07.31-1.54.92-2.07 1.39-.81 2.31-.81 1.71.27 2.3.82.9 1.23.9 2.07-.3 1.54-.89 2.09-1.36.83-2.31.83Zm2.88-25.61-.69 17.37h-4.5l-.65-17.37h5.84ZM298.2 37.59h-5.7V27.32h-10.44v10.27h-5.68v-25.2h5.68v10.05h10.44V12.39h5.7V37.6ZM319.08 37.59h-15.12v-25.2h14.54v4.62h-8.86v5.61h8.24v4.61h-8.24V33h9.44v4.61ZM355.73 37.59h-5.36V23.74c0-1.59.06-2.95.18-4.08h-.11c-.25.48-.67 1.18-1.27 2.09l-10.41 15.84h-5.71v-25.2h5.36v13.94c0 1.72-.05 2.88-.14 3.46h.07c.06-.14.49-.83 1.3-2.06l10-15.35h6.08v25.21ZM359.9 36.66v-4.97c2 1.35 4.28 2.02 6.84 2.02 3.16 0 4.75-1.14 4.75-3.43s-1.74-3.48-5.22-3.48h-3.23v-4.25h3.09c3.09 0 4.64-1.09 4.64-3.27 0-1.99-1.32-2.99-3.96-2.99-1.89 0-3.9.6-6.05 1.79v-4.64c2.16-.98 4.54-1.48 7.15-1.48 2.75 0 4.89.57 6.41 1.71s2.28 2.69 2.28 4.65c0 1.54-.43 2.84-1.29 3.91s-2.09 1.8-3.68 2.17v.09c1.79.23 3.2.88 4.21 1.94s1.52 2.38 1.52 3.95c0 2.43-.88 4.31-2.64 5.64s-4.29 2-7.59 2-5.55-.46-7.22-1.37ZM410.34 37.59h-5.61V22.51c0-1.63.07-3.43.21-5.4h-.14c-.29 1.55-.56 2.66-.79 3.34l-5.91 17.14h-4.64l-6.01-16.96c-.16-.46-.43-1.63-.79-3.52h-.16c.15 2.48.23 4.66.23 6.54v13.94h-5.12v-25.2h8.31l5.15 14.94c.41 1.2.71 2.4.9 3.6h.11c.32-1.39.65-2.61 1-3.64l5.15-14.91h8.1v25.21ZM431.19 37.59h-15.12v-25.2h14.54v4.62h-8.86v5.61h8.24v4.61h-8.24V33h9.44v4.61ZM457.05 37.59h-5.7V27.32h-10.44v10.27h-5.68v-25.2h5.68v10.05h10.44V12.39h5.7V37.6ZM480.09 37.59h-5.7V27.8h-1.51c-1.41 0-2.55 1.07-3.45 3.2l-2.74 6.59h-6.56l3.53-7.52c1-2.12 2.3-3.44 3.92-3.96v-.07c-3.71-.88-5.57-3.03-5.57-6.45 0-2.26.82-4.03 2.46-5.3s3.95-1.91 6.93-1.91h8.68v25.21Zm-5.69-14.04v-6.84h-2.37c-2.66 0-3.99 1.11-3.99 3.32 0 1.05.36 1.9 1.08 2.55s1.69.97 2.91.97h2.37ZM503.56 17.01h-7.19v20.58h-5.7V17.01h-7.15v-4.62h20.04v4.62ZM506.95 37.59v-25.2h5.68v9.44h3.71c6.08 0 9.12 2.47 9.12 7.42 0 2.64-.82 4.69-2.46 6.15s-3.96 2.2-6.94 2.2h-9.11Zm5.68-11.47v7.15h2.57c2.86 0 4.29-1.21 4.29-3.64s-1.39-3.52-4.18-3.52h-2.67ZM542.34 38c-.94 0-1.71-.28-2.32-.85s-.91-1.26-.91-2.07.31-1.54.92-2.07 1.39-.81 2.31-.81 1.71.27 2.3.82.9 1.23.9 2.07-.3 1.54-.89 2.09-1.36.83-2.31.83Zm2.88-25.61-.69 17.37h-4.5l-.65-17.37h5.84ZM564.05 38c-.94 0-1.71-.28-2.32-.85s-.91-1.26-.91-2.07.31-1.54.92-2.07 1.39-.81 2.31-.81 1.71.27 2.3.82.9 1.23.9 2.07-.3 1.54-.89 2.09-1.36.83-2.31.83Zm2.88-25.61-.69 17.37h-4.5l-.65-17.37h5.84ZM585.76 38c-.94 0-1.71-.28-2.32-.85s-.91-1.26-.91-2.07.31-1.54.92-2.07 1.39-.81 2.31-.81 1.71.27 2.3.82.9 1.23.9 2.07-.3 1.54-.89 2.09-1.36.83-2.31.83Zm2.88-25.61-.69 17.37h-4.5l-.65-17.37h5.84Z" class="cls-1"/></svg>
